# xmcd
#
# Track frame offsets: 
#        150
#        10233
#        20689
#        28248
#        38359
#        47003
#        55760
#        65433
#        76265
#        85643
#        92762
#        102402
#        113153
#        123262
#
# Disc length: 1796 seconds
#
# Revision: 0
# Processed by: cddbd v1.5.2PL0 Copyright (c) Steve Scherf et al.
# Submitted via: ExactAudioCopy v1.0b1
#
DISCID=a407020e
DTITLE=Mean Devils - Recording Sessions
DYEAR=2001
DGENRE=Rock and Roll
TTITLE0=Bop That Beat
TTITLE1=I Don't Like I Did
TTITLE2=Cut Me Some Slack
TTITLE3=Rock'n'Roll Fever
TTITLE4=Dangerous Curves and Sinful Eyes
TTITLE5=Hold On
TTITLE6=Pepper Hot Baby
TTITLE7=Heartbreakin' Love
TTITLE8=Tall Dark Handsome Man
TTITLE9=Rabbit Action
TTITLE10=Drink Up My Pain
TTITLE11=Rockin' The Blues
TTITLE12=Roll On Big Mama
TTITLE13=Out Of Control
EXTD=
EXTT0=
EXTT1=
EXTT2=
EXTT3=
EXTT4=
EXTT5=
EXTT6=
EXTT7=
EXTT8=
EXTT9=
EXTT10=
EXTT11=
EXTT12=
EXTT13=
PLAYORDER=
